var Melody1 = {
  notes: [
    {pitch: 60, startTime: 0.0, endTime: 0.5},
    {pitch: 60, startTime: 0.5, endTime: 1.0},
    {pitch: 67, startTime: 1.0, endTime: 1.5},
    {pitch: 67, startTime: 1.5, endTime: 2.0},
    {pitch: 69, startTime: 2.0, endTime: 2.5},
    {pitch: 69, startTime: 2.5, endTime: 3.0},
    {pitch: 67, startTime: 3.0, endTime: 4.0},
    {pitch: 65, startTime: 4.0, endTime: 4.5},
    {pitch: 65, startTime: 4.5, endTime: 5.0},
    {pitch: 64, startTime: 5.0, endTime: 5.5},
    {pitch: 64, startTime: 5.5, endTime: 6.0},
    {pitch: 62, startTime: 6.0, endTime: 6.5},
    {pitch: 62, startTime: 6.5, endTime: 7.0},
    {pitch: 60, startTime: 7.0, endTime: 8.0},  
  ],
  totalTime: 8
};

var Melody2 = {
  notes: [
    {pitch: 60, startTime: 0.0, endTime: 0.5},
    {pitch: 60, startTime: 0.5, endTime: 1.0},
    {pitch: 64, startTime: 1.0, endTime: 1.5},
    {pitch: 64, startTime: 1.5, endTime: 2.0},
    {pitch: 62, startTime: 2.0, endTime: 2.5},
    {pitch: 62, startTime: 2.5, endTime: 3.0},
    {pitch: 64, startTime: 3.0, endTime: 4.0},
    {pitch: 60, startTime: 4.0, endTime: 4.5},
    {pitch: 60, startTime: 4.5, endTime: 5.0},
    {pitch: 62, startTime: 5.0, endTime: 5.5},
    {pitch: 62, startTime: 5.5, endTime: 6.0},
    {pitch: 64, startTime: 6.0, endTime: 8.0}, 
  ],
  totalTime: 8
};

var Melody3 = {
  notes: [
    {pitch: 64, startTime: 0.0, endTime: 0.5},
    {pitch: 64, startTime: 0.5, endTime: 1.0},
    {pitch: 64, startTime: 1.0, endTime: 1.5},
    {pitch: 62, startTime: 1.5, endTime: 2.0},
    {pitch: 60, startTime: 2.0, endTime: 2.5},
    {pitch: 60, startTime: 2.5, endTime: 3.5},
    {pitch: 62, startTime: 3.5, endTime: 4.0},
    {pitch: 69, startTime: 4.0, endTime: 5.0},
    {pitch: 69, startTime: 5.0, endTime: 5.5},
    {pitch: 69, startTime: 5.5, endTime: 6.0},
    {pitch: 65, startTime: 6.0, endTime: 7.0},
    {pitch: 65, startTime: 7.0, endTime: 8.0},
    {pitch: 67, startTime: 8.0, endTime: 10.0},
 
  ],
  totalTime: 10
};

var Drumkit1 = {
  notes: [
    { pitch: 36, quantizedStartStep: 0, quantizedEndStep: 1, isDrum: true },
    { pitch: 38, quantizedStartStep: 0, quantizedEndStep: 1, isDrum: true },
    { pitch: 42, quantizedStartStep: 0, quantizedEndStep: 1, isDrum: true },
    { pitch: 46, quantizedStartStep: 0, quantizedEndStep: 1, isDrum: true },
    { pitch: 42, quantizedStartStep: 2, quantizedEndStep: 3, isDrum: true },
    { pitch: 42, quantizedStartStep: 3, quantizedEndStep: 4, isDrum: true },
    { pitch: 42, quantizedStartStep: 4, quantizedEndStep: 5, isDrum: true },
    { pitch: 50, quantizedStartStep: 4, quantizedEndStep: 5, isDrum: true },
    { pitch: 36, quantizedStartStep: 6, quantizedEndStep: 7, isDrum: true },
    { pitch: 38, quantizedStartStep: 6, quantizedEndStep: 7, isDrum: true },
    { pitch: 42, quantizedStartStep: 6, quantizedEndStep: 7, isDrum: true },
    { pitch: 45, quantizedStartStep: 6, quantizedEndStep: 7, isDrum: true },
    { pitch: 36, quantizedStartStep: 8, quantizedEndStep: 9, isDrum: true },
    { pitch: 42, quantizedStartStep: 8, quantizedEndStep: 9, isDrum: true },
    { pitch: 46, quantizedStartStep: 8, quantizedEndStep: 9, isDrum: true },
    { pitch: 42, quantizedStartStep: 10, quantizedEndStep: 11, isDrum: true },
    { pitch: 48, quantizedStartStep: 10, quantizedEndStep: 11, isDrum: true },
    { pitch: 50, quantizedStartStep: 10, quantizedEndStep: 11, isDrum: true },
  ],
  quantizationInfo: {stepsPerQuarter: 4},
  tempos: [{time: 0, qpm: 120}],
  totalQuantizedSteps: 11
};

var Drumkit2 = {"ticksPerQuarter":480,"timeSignatures":[{"time":0,"numerator":12,"denominator":8}],"tempos":[{"time":0,"qpm":120}],"notes":[{"pitch":41,"velocity":86,"startTime":0,"endTime":0.03125,"instrument":0,"program":-1,"isDrum":true},{"pitch":36,"velocity":84,"startTime":0,"endTime":0.03125,"instrument":0,"program":-1,"isDrum":true},{"pitch":42,"velocity":96,"startTime":0,"endTime":0.03125,"instrument":0,"program":-1,"isDrum":true},{"pitch":42,"velocity":71,"startTime":0.24583333333333332,"endTime":0.28125,"instrument":0,"program":-1,"isDrum":true},{"pitch":41,"velocity":86,"startTime":0.49583333333333335,"endTime":0.53125,"instrument":0,"program":-1,"isDrum":true},{"pitch":42,"velocity":96,"startTime":0.49583333333333335,"endTime":0.53125,"instrument":0,"program":-1,"isDrum":true},{"pitch":70,"velocity":96,"startTime":0.49583333333333335,"endTime":0.53125,"instrument":0,"program":-1,"isDrum":true},{"pitch":42,"velocity":71,"startTime":0.7458333333333333,"endTime":0.78125,"instrument":0,"program":-1,"isDrum":true},{"pitch":70,"velocity":71,"startTime":0.7458333333333333,"endTime":0.78125,"instrument":0,"program":-1,"isDrum":true},{"pitch":41,"velocity":86,"startTime":0.9958333333333333,"endTime":1.03125,"instrument":0,"program":-1,"isDrum":true},{"pitch":38,"velocity":86,"startTime":0.9958333333333333,"endTime":1.03125,"instrument":0,"program":-1,"isDrum":true},{"pitch":42,"velocity":96,"startTime":0.9958333333333333,"endTime":1.03125,"instrument":0,"program":-1,"isDrum":true},{"pitch":42,"velocity":96,"startTime":1.2458333333333333,"endTime":1.28125,"instrument":0,"program":-1,"isDrum":true},{"pitch":70,"velocity":96,"startTime":1.2458333333333333,"endTime":1.28125,"instrument":0,"program":-1,"isDrum":true},{"pitch":41,"velocity":86,"startTime":1.2458333333333333,"endTime":1.28125,"instrument":0,"program":-1,"isDrum":true},{"pitch":41,"velocity":86,"startTime":1.4958333333333333,"endTime":1.53125,"instrument":0,"program":-1,"isDrum":true},{"pitch":36,"velocity":84,"startTime":1.4958333333333333,"endTime":1.53125,"instrument":0,"program":-1,"isDrum":true},{"pitch":42,"velocity":96,"startTime":1.4958333333333333,"endTime":1.53125,"instrument":0,"program":-1,"isDrum":true},{"pitch":42,"velocity":71,"startTime":1.7458333333333333,"endTime":1.78125,"instrument":0,"program":-1,"isDrum":true},{"pitch":41,"velocity":86,"startTime":1.9958333333333333,"endTime":2.03125,"instrument":0,"program":-1,"isDrum":true},{"pitch":42,"velocity":96,"startTime":1.9958333333333333,"endTime":2.03125,"instrument":0,"program":-1,"isDrum":true},{"pitch":70,"velocity":96,"startTime":1.9958333333333333,"endTime":2.03125,"instrument":0,"program":-1,"isDrum":true},{"pitch":41,"velocity":86,"startTime":2.245833333333333,"endTime":2.28125,"instrument":0,"program":-1,"isDrum":true},{"pitch":38,"velocity":86,"startTime":2.245833333333333,"endTime":2.28125,"instrument":0,"program":-1,"isDrum":true},{"pitch":42,"velocity":96,"startTime":2.245833333333333,"endTime":2.28125,"instrument":0,"program":-1,"isDrum":true},{"pitch":42,"velocity":96,"startTime":2.495833333333333,"endTime":2.53125,"instrument":0,"program":-1,"isDrum":true},{"pitch":70,"velocity":96,"startTime":2.495833333333333,"endTime":2.53125,"instrument":0,"program":-1,"isDrum":true},{"pitch":41,"velocity":86,"startTime":2.495833333333333,"endTime":2.53125,"instrument":0,"program":-1,"isDrum":true},{"pitch":42,"velocity":71,"startTime":2.745833333333333,"endTime":2.78125,"instrument":0,"program":-1,"isDrum":true},{"pitch":70,"velocity":71,"startTime":2.745833333333333,"endTime":2.78125,"instrument":0,"program":-1,"isDrum":true},{"pitch":41,"velocity":86,"startTime":2.995833333333333,"endTime":3.03125,"instrument":0,"program":-1,"isDrum":true},{"pitch":42,"velocity":96,"startTime":2.995833333333333,"endTime":3.03125,"instrument":0,"program":-1,"isDrum":true},{"pitch":36,"velocity":84,"startTime":2.995833333333333,"endTime":3.03125,"instrument":0,"program":-1,"isDrum":true},{"pitch":42,"velocity":71,"startTime":3.245833333333333,"endTime":3.28125,"instrument":0,"program":-1,"isDrum":true},{"pitch":41,"velocity":86,"startTime":3.495833333333333,"endTime":3.53125,"instrument":0,"program":-1,"isDrum":true},{"pitch":70,"velocity":96,"startTime":3.495833333333333,"endTime":3.53125,"instrument":0,"program":-1,"isDrum":true},{"pitch":42,"velocity":96,"startTime":3.495833333333333,"endTime":3.53125,"instrument":0,"program":-1,"isDrum":true},{"pitch":42,"velocity":71,"startTime":3.745833333333333,"endTime":3.78125,"instrument":0,"program":-1,"isDrum":true},{"pitch":70,"velocity":71,"startTime":3.745833333333333,"endTime":3.78125,"instrument":0,"program":-1,"isDrum":true},{"pitch":38,"velocity":86,"startTime":3.995833333333333,"endTime":4.03125,"instrument":0,"program":-1,"isDrum":true},{"pitch":42,"velocity":96,"startTime":3.995833333333333,"endTime":4.03125,"instrument":0,"program":-1,"isDrum":true},{"pitch":41,"velocity":86,"startTime":3.995833333333333,"endTime":4.03125,"instrument":0,"program":-1,"isDrum":true},{"pitch":70,"velocity":96,"startTime":4.245833333333334,"endTime":4.28125,"instrument":0,"program":-1,"isDrum":true},{"pitch":41,"velocity":86,"startTime":4.245833333333334,"endTime":4.28125,"instrument":0,"program":-1,"isDrum":true},{"pitch":42,"velocity":96,"startTime":4.245833333333334,"endTime":4.28125,"instrument":0,"program":-1,"isDrum":true},{"pitch":41,"velocity":86,"startTime":4.495833333333334,"endTime":4.53125,"instrument":0,"program":-1,"isDrum":true},{"pitch":42,"velocity":96,"startTime":4.495833333333334,"endTime":4.53125,"instrument":0,"program":-1,"isDrum":true},{"pitch":36,"velocity":84,"startTime":4.495833333333334,"endTime":4.53125,"instrument":0,"program":-1,"isDrum":true},{"pitch":42,"velocity":71,"startTime":4.745833333333334,"endTime":4.78125,"instrument":0,"program":-1,"isDrum":true},{"pitch":41,"velocity":86,"startTime":4.995833333333334,"endTime":5.03125,"instrument":0,"program":-1,"isDrum":true},{"pitch":70,"velocity":96,"startTime":4.995833333333334,"endTime":5.03125,"instrument":0,"program":-1,"isDrum":true},{"pitch":42,"velocity":96,"startTime":4.995833333333334,"endTime":5.03125,"instrument":0,"program":-1,"isDrum":true},{"pitch":38,"velocity":86,"startTime":5.245833333333334,"endTime":5.28125,"instrument":0,"program":-1,"isDrum":true},{"pitch":42,"velocity":96,"startTime":5.245833333333334,"endTime":5.28125,"instrument":0,"program":-1,"isDrum":true},{"pitch":41,"velocity":86,"startTime":5.245833333333334,"endTime":5.28125,"instrument":0,"program":-1,"isDrum":true},{"pitch":70,"velocity":96,"startTime":5.495833333333334,"endTime":5.53125,"instrument":0,"program":-1,"isDrum":true},{"pitch":41,"velocity":86,"startTime":5.495833333333334,"endTime":5.53125,"instrument":0,"program":-1,"isDrum":true},{"pitch":42,"velocity":96,"startTime":5.495833333333334,"endTime":5.53125,"instrument":0,"program":-1,"isDrum":true},{"pitch":70,"velocity":71,"startTime":5.745833333333334,"endTime":5.78125,"instrument":0,"program":-1,"isDrum":true},{"pitch":42,"velocity":71,"startTime":5.745833333333334,"endTime":5.78125,"instrument":0,"program":-1,"isDrum":true},{"pitch":36,"velocity":84,"startTime":5.995833333333334,"endTime":6.03125,"instrument":0,"program":-1,"isDrum":true},{"pitch":41,"velocity":86,"startTime":5.995833333333334,"endTime":6.03125,"instrument":0,"program":-1,"isDrum":true},{"pitch":42,"velocity":96,"startTime":5.995833333333334,"endTime":6.03125,"instrument":0,"program":-1,"isDrum":true},{"pitch":42,"velocity":71,"startTime":6.245833333333334,"endTime":6.28125,"instrument":0,"program":-1,"isDrum":true},{"pitch":70,"velocity":96,"startTime":6.495833333333334,"endTime":6.53125,"instrument":0,"program":-1,"isDrum":true},{"pitch":42,"velocity":96,"startTime":6.495833333333334,"endTime":6.53125,"instrument":0,"program":-1,"isDrum":true},{"pitch":41,"velocity":86,"startTime":6.495833333333334,"endTime":6.53125,"instrument":0,"program":-1,"isDrum":true},{"pitch":70,"velocity":71,"startTime":6.745833333333334,"endTime":6.78125,"instrument":0,"program":-1,"isDrum":true},{"pitch":42,"velocity":71,"startTime":6.745833333333334,"endTime":6.78125,"instrument":0,"program":-1,"isDrum":true},{"pitch":38,"velocity":86,"startTime":6.995833333333334,"endTime":7.03125,"instrument":0,"program":-1,"isDrum":true},{"pitch":41,"velocity":86,"startTime":6.995833333333334,"endTime":7.03125,"instrument":0,"program":-1,"isDrum":true},{"pitch":42,"velocity":96,"startTime":6.995833333333334,"endTime":7.03125,"instrument":0,"program":-1,"isDrum":true},{"pitch":42,"velocity":96,"startTime":7.245833333333334,"endTime":7.28125,"instrument":0,"program":-1,"isDrum":true},{"pitch":41,"velocity":86,"startTime":7.245833333333334,"endTime":7.28125,"instrument":0,"program":-1,"isDrum":true},{"pitch":70,"velocity":96,"startTime":7.245833333333334,"endTime":7.28125,"instrument":0,"program":-1,"isDrum":true},{"pitch":36,"velocity":84,"startTime":7.495833333333334,"endTime":7.53125,"instrument":0,"program":-1,"isDrum":true},{"pitch":41,"velocity":86,"startTime":7.495833333333334,"endTime":7.53125,"instrument":0,"program":-1,"isDrum":true},{"pitch":42,"velocity":96,"startTime":7.495833333333334,"endTime":7.53125,"instrument":0,"program":-1,"isDrum":true},{"pitch":42,"velocity":71,"startTime":7.745833333333334,"endTime":7.78125,"instrument":0,"program":-1,"isDrum":true},{"pitch":70,"velocity":96,"startTime":7.995833333333334,"endTime":8.03125,"instrument":0,"program":-1,"isDrum":true},{"pitch":42,"velocity":96,"startTime":7.995833333333334,"endTime":8.03125,"instrument":0,"program":-1,"isDrum":true},{"pitch":41,"velocity":86,"startTime":7.995833333333334,"endTime":8.03125,"instrument":0,"program":-1,"isDrum":true},{"pitch":38,"velocity":86,"startTime":8.245833333333334,"endTime":8.28125,"instrument":0,"program":-1,"isDrum":true},{"pitch":41,"velocity":86,"startTime":8.245833333333334,"endTime":8.28125,"instrument":0,"program":-1,"isDrum":true},{"pitch":42,"velocity":96,"startTime":8.245833333333334,"endTime":8.28125,"instrument":0,"program":-1,"isDrum":true},{"pitch":42,"velocity":96,"startTime":8.495833333333334,"endTime":8.53125,"instrument":0,"program":-1,"isDrum":true},{"pitch":41,"velocity":86,"startTime":8.495833333333334,"endTime":8.53125,"instrument":0,"program":-1,"isDrum":true},{"pitch":70,"velocity":96,"startTime":8.495833333333334,"endTime":8.53125,"instrument":0,"program":-1,"isDrum":true},{"pitch":70,"velocity":71,"startTime":8.745833333333334,"endTime":8.78125,"instrument":0,"program":-1,"isDrum":true},{"pitch":42,"velocity":71,"startTime":8.745833333333334,"endTime":8.78125,"instrument":0,"program":-1,"isDrum":true},{"pitch":41,"velocity":86,"startTime":8.995833333333334,"endTime":9.03125,"instrument":0,"program":-1,"isDrum":true},{"pitch":36,"velocity":84,"startTime":8.995833333333334,"endTime":9.03125,"instrument":0,"program":-1,"isDrum":true},{"pitch":42,"velocity":96,"startTime":8.995833333333334,"endTime":9.03125,"instrument":0,"program":-1,"isDrum":true},{"pitch":38,"velocity":86,"startTime":8.995833333333334,"endTime":9.03125,"instrument":0,"program":-1,"isDrum":true},{"pitch":42,"velocity":71,"startTime":9.245833333333334,"endTime":9.28125,"instrument":0,"program":-1,"isDrum":true},{"pitch":41,"velocity":86,"startTime":9.495833333333334,"endTime":9.53125,"instrument":0,"program":-1,"isDrum":true},{"pitch":70,"velocity":96,"startTime":9.495833333333334,"endTime":9.53125,"instrument":0,"program":-1,"isDrum":true},{"pitch":42,"velocity":96,"startTime":9.495833333333334,"endTime":9.53125,"instrument":0,"program":-1,"isDrum":true},{"pitch":36,"velocity":81,"startTime":9.745833333333334,"endTime":9.78125,"instrument":0,"program":-1,"isDrum":true},{"pitch":70,"velocity":71,"startTime":9.745833333333334,"endTime":9.78125,"instrument":0,"program":-1,"isDrum":true},{"pitch":42,"velocity":71,"startTime":9.745833333333334,"endTime":9.78125,"instrument":0,"program":-1,"isDrum":true},{"pitch":38,"velocity":86,"startTime":9.995833333333334,"endTime":10.03125,"instrument":0,"program":-1,"isDrum":true},{"pitch":41,"velocity":86,"startTime":9.995833333333334,"endTime":10.03125,"instrument":0,"program":-1,"isDrum":true},{"pitch":42,"velocity":96,"startTime":9.995833333333334,"endTime":10.03125,"instrument":0,"program":-1,"isDrum":true},{"pitch":41,"velocity":86,"startTime":10.245833333333334,"endTime":10.28125,"instrument":0,"program":-1,"isDrum":true},{"pitch":42,"velocity":96,"startTime":10.245833333333334,"endTime":10.28125,"instrument":0,"program":-1,"isDrum":true},{"pitch":70,"velocity":96,"startTime":10.245833333333334,"endTime":10.28125,"instrument":0,"program":-1,"isDrum":true},{"pitch":41,"velocity":86,"startTime":10.495833333333334,"endTime":10.53125,"instrument":0,"program":-1,"isDrum":true},{"pitch":36,"velocity":84,"startTime":10.495833333333334,"endTime":10.53125,"instrument":0,"program":-1,"isDrum":true},{"pitch":42,"velocity":96,"startTime":10.495833333333334,"endTime":10.53125,"instrument":0,"program":-1,"isDrum":true},{"pitch":38,"velocity":86,"startTime":10.495833333333334,"endTime":10.53125,"instrument":0,"program":-1,"isDrum":true},{"pitch":42,"velocity":71,"startTime":10.745833333333334,"endTime":10.78125,"instrument":0,"program":-1,"isDrum":true},{"pitch":41,"velocity":86,"startTime":10.995833333333334,"endTime":11.03125,"instrument":0,"program":-1,"isDrum":true},{"pitch":70,"velocity":96,"startTime":10.995833333333334,"endTime":11.03125,"instrument":0,"program":-1,"isDrum":true},{"pitch":42,"velocity":96,"startTime":10.995833333333334,"endTime":11.03125,"instrument":0,"program":-1,"isDrum":true},{"pitch":38,"velocity":86,"startTime":11.245833333333334,"endTime":11.28125,"instrument":0,"program":-1,"isDrum":true},{"pitch":41,"velocity":86,"startTime":11.245833333333334,"endTime":11.28125,"instrument":0,"program":-1,"isDrum":true},{"pitch":42,"velocity":96,"startTime":11.245833333333334,"endTime":11.28125,"instrument":0,"program":-1,"isDrum":true},{"pitch":41,"velocity":86,"startTime":11.495833333333334,"endTime":11.53125,"instrument":0,"program":-1,"isDrum":true},{"pitch":42,"velocity":96,"startTime":11.495833333333334,"endTime":11.53125,"instrument":0,"program":-1,"isDrum":true},{"pitch":70,"velocity":96,"startTime":11.495833333333334,"endTime":11.53125,"instrument":0,"program":-1,"isDrum":true},{"pitch":42,"velocity":71,"startTime":11.745833333333334,"endTime":11.78125,"instrument":0,"program":-1,"isDrum":true},{"pitch":70,"velocity":71,"startTime":11.745833333333334,"endTime":11.78125,"instrument":0,"program":-1,"isDrum":true}],"totalTime":11.78125,"sourceInfo":{"encodingType":"MIDI","parser":"TONEJS_MIDI_CONVERT"}};

var Drumkit3 = {"ticksPerQuarter":120,"timeSignatures":[{"time":0,"numerator":4,"denominator":4}],"tempos":[{"time":0,"qpm":100}],"notes":[{"pitch":36,"velocity":128,"startTime":0,"endTime":0.049999999999999996,"instrument":0,"program":-1,"isDrum":true},{"pitch":42,"velocity":84,"startTime":0,"endTime":0.049999999999999996,"instrument":0,"program":-1,"isDrum":true},{"pitch":42,"velocity":66,"startTime":0.19999999999999998,"endTime":0.24999999999999997,"instrument":0,"program":-1,"isDrum":true},{"pitch":44,"velocity":123,"startTime":0.3,"endTime":0.35,"instrument":0,"program":-1,"isDrum":true},{"pitch":36,"velocity":123,"startTime":0.3,"endTime":0.35,"instrument":0,"program":-1,"isDrum":true},{"pitch":42,"velocity":64,"startTime":0.5,"endTime":0.55,"instrument":0,"program":-1,"isDrum":true},{"pitch":42,"velocity":73,"startTime":0.6000000000000001,"endTime":0.6500000000000001,"instrument":0,"program":-1,"isDrum":true},{"pitch":38,"velocity":128,"startTime":0.6000000000000001,"endTime":0.6500000000000001,"instrument":0,"program":-1,"isDrum":true},{"pitch":42,"velocity":78,"startTime":0.8000000000000002,"endTime":0.8500000000000002,"instrument":0,"program":-1,"isDrum":true},{"pitch":46,"velocity":128,"startTime":0.9000000000000002,"endTime":0.9500000000000003,"instrument":0,"program":-1,"isDrum":true},{"pitch":44,"velocity":84,"startTime":1.2000000000000002,"endTime":1.2500000000000002,"instrument":0,"program":-1,"isDrum":true},{"pitch":36,"velocity":104,"startTime":1.2000000000000002,"endTime":1.2500000000000002,"instrument":0,"program":-1,"isDrum":true},{"pitch":42,"velocity":61,"startTime":1.4000000000000001,"endTime":1.4500000000000002,"instrument":0,"program":-1,"isDrum":true},{"pitch":44,"velocity":123,"startTime":1.5000000000000002,"endTime":1.5500000000000003,"instrument":0,"program":-1,"isDrum":true},{"pitch":36,"velocity":123,"startTime":1.5000000000000002,"endTime":1.5500000000000003,"instrument":0,"program":-1,"isDrum":true},{"pitch":42,"velocity":55,"startTime":1.7000000000000002,"endTime":1.7500000000000002,"instrument":0,"program":-1,"isDrum":true},{"pitch":42,"velocity":74,"startTime":1.8000000000000003,"endTime":1.8500000000000003,"instrument":0,"program":-1,"isDrum":true},{"pitch":38,"velocity":128,"startTime":1.8000000000000003,"endTime":1.8500000000000003,"instrument":0,"program":-1,"isDrum":true},{"pitch":42,"velocity":71,"startTime":2.0000000000000004,"endTime":2.0500000000000003,"instrument":0,"program":-1,"isDrum":true},{"pitch":44,"velocity":123,"startTime":2.1,"endTime":2.15,"instrument":0,"program":-1,"isDrum":true},{"pitch":42,"velocity":42,"startTime":2.3,"endTime":2.3499999999999996,"instrument":0,"program":-1,"isDrum":true},{"pitch":38,"velocity":35,"startTime":2.3,"endTime":2.3499999999999996,"instrument":0,"program":-1,"isDrum":true},{"pitch":42,"velocity":64,"startTime":2.3999999999999995,"endTime":2.4499999999999993,"instrument":0,"program":-1,"isDrum":true},{"pitch":36,"velocity":123,"startTime":2.3999999999999995,"endTime":2.4499999999999993,"instrument":0,"program":-1,"isDrum":true},{"pitch":42,"velocity":57,"startTime":2.599999999999999,"endTime":2.649999999999999,"instrument":0,"program":-1,"isDrum":true},{"pitch":44,"velocity":123,"startTime":2.699999999999999,"endTime":2.7499999999999987,"instrument":0,"program":-1,"isDrum":true},{"pitch":36,"velocity":128,"startTime":2.699999999999999,"endTime":2.7499999999999987,"instrument":0,"program":-1,"isDrum":true},{"pitch":42,"velocity":62,"startTime":2.8999999999999986,"endTime":2.9499999999999984,"instrument":0,"program":-1,"isDrum":true},{"pitch":42,"velocity":73,"startTime":2.9999999999999982,"endTime":3.049999999999998,"instrument":0,"program":-1,"isDrum":true},{"pitch":38,"velocity":128,"startTime":2.9999999999999982,"endTime":3.049999999999998,"instrument":0,"program":-1,"isDrum":true},{"pitch":42,"velocity":82,"startTime":3.199999999999998,"endTime":3.249999999999998,"instrument":0,"program":-1,"isDrum":true},{"pitch":46,"velocity":128,"startTime":3.2999999999999976,"endTime":3.3499999999999974,"instrument":0,"program":-1,"isDrum":true},{"pitch":44,"velocity":78,"startTime":3.5999999999999974,"endTime":3.6499999999999972,"instrument":0,"program":-1,"isDrum":true},{"pitch":36,"velocity":102,"startTime":3.5999999999999974,"endTime":3.6499999999999972,"instrument":0,"program":-1,"isDrum":true},{"pitch":42,"velocity":67,"startTime":3.799999999999997,"endTime":3.849999999999997,"instrument":0,"program":-1,"isDrum":true},{"pitch":44,"velocity":128,"startTime":3.899999999999997,"endTime":3.9499999999999966,"instrument":0,"program":-1,"isDrum":true},{"pitch":36,"velocity":128,"startTime":3.899999999999997,"endTime":3.9499999999999966,"instrument":0,"program":-1,"isDrum":true},{"pitch":42,"velocity":60,"startTime":4.099999999999997,"endTime":4.149999999999997,"instrument":0,"program":-1,"isDrum":true},{"pitch":42,"velocity":78,"startTime":4.199999999999997,"endTime":4.2499999999999964,"instrument":0,"program":-1,"isDrum":true},{"pitch":38,"velocity":128,"startTime":4.199999999999997,"endTime":4.2499999999999964,"instrument":0,"program":-1,"isDrum":true},{"pitch":42,"velocity":74,"startTime":4.399999999999997,"endTime":4.449999999999997,"instrument":0,"program":-1,"isDrum":true},{"pitch":44,"velocity":128,"startTime":4.4999999999999964,"endTime":4.549999999999996,"instrument":0,"program":-1,"isDrum":true},{"pitch":42,"velocity":86,"startTime":4.699999999999997,"endTime":4.7499999999999964,"instrument":0,"program":-1,"isDrum":true},{"pitch":38,"velocity":44,"startTime":4.699999999999997,"endTime":4.7499999999999964,"instrument":0,"program":-1,"isDrum":true},{"pitch":36,"velocity":128,"startTime":4.799999999999996,"endTime":4.849999999999996,"instrument":0,"program":-1,"isDrum":true},{"pitch":42,"velocity":84,"startTime":4.799999999999996,"endTime":4.849999999999996,"instrument":0,"program":-1,"isDrum":true},{"pitch":42,"velocity":66,"startTime":4.9999999999999964,"endTime":5.049999999999996,"instrument":0,"program":-1,"isDrum":true},{"pitch":44,"velocity":123,"startTime":5.099999999999996,"endTime":5.149999999999996,"instrument":0,"program":-1,"isDrum":true},{"pitch":36,"velocity":123,"startTime":5.099999999999996,"endTime":5.149999999999996,"instrument":0,"program":-1,"isDrum":true},{"pitch":42,"velocity":64,"startTime":5.299999999999996,"endTime":5.349999999999996,"instrument":0,"program":-1,"isDrum":true},{"pitch":42,"velocity":73,"startTime":5.399999999999996,"endTime":5.449999999999996,"instrument":0,"program":-1,"isDrum":true},{"pitch":38,"velocity":128,"startTime":5.399999999999996,"endTime":5.449999999999996,"instrument":0,"program":-1,"isDrum":true},{"pitch":42,"velocity":78,"startTime":5.599999999999996,"endTime":5.649999999999996,"instrument":0,"program":-1,"isDrum":true},{"pitch":46,"velocity":128,"startTime":5.699999999999996,"endTime":5.749999999999996,"instrument":0,"program":-1,"isDrum":true},{"pitch":44,"velocity":84,"startTime":5.999999999999996,"endTime":6.049999999999995,"instrument":0,"program":-1,"isDrum":true},{"pitch":36,"velocity":104,"startTime":5.999999999999996,"endTime":6.049999999999995,"instrument":0,"program":-1,"isDrum":true},{"pitch":42,"velocity":61,"startTime":6.199999999999996,"endTime":6.249999999999996,"instrument":0,"program":-1,"isDrum":true},{"pitch":44,"velocity":123,"startTime":6.299999999999995,"endTime":6.349999999999995,"instrument":0,"program":-1,"isDrum":true},{"pitch":36,"velocity":123,"startTime":6.299999999999995,"endTime":6.349999999999995,"instrument":0,"program":-1,"isDrum":true},{"pitch":42,"velocity":55,"startTime":6.499999999999996,"endTime":6.549999999999995,"instrument":0,"program":-1,"isDrum":true},{"pitch":42,"velocity":74,"startTime":6.599999999999995,"endTime":6.649999999999995,"instrument":0,"program":-1,"isDrum":true},{"pitch":38,"velocity":128,"startTime":6.599999999999995,"endTime":6.649999999999995,"instrument":0,"program":-1,"isDrum":true},{"pitch":42,"velocity":71,"startTime":6.799999999999995,"endTime":6.849999999999995,"instrument":0,"program":-1,"isDrum":true},{"pitch":44,"velocity":123,"startTime":6.899999999999995,"endTime":6.949999999999995,"instrument":0,"program":-1,"isDrum":true},{"pitch":42,"velocity":42,"startTime":7.099999999999995,"endTime":7.149999999999995,"instrument":0,"program":-1,"isDrum":true},{"pitch":38,"velocity":35,"startTime":7.099999999999995,"endTime":7.149999999999995,"instrument":0,"program":-1,"isDrum":true},{"pitch":42,"velocity":64,"startTime":7.199999999999995,"endTime":7.249999999999995,"instrument":0,"program":-1,"isDrum":true},{"pitch":36,"velocity":123,"startTime":7.199999999999995,"endTime":7.249999999999995,"instrument":0,"program":-1,"isDrum":true},{"pitch":42,"velocity":64,"startTime":7.399999999999995,"endTime":7.449999999999995,"instrument":0,"program":-1,"isDrum":true},{"pitch":44,"velocity":103,"startTime":7.499999999999995,"endTime":7.5499999999999945,"instrument":0,"program":-1,"isDrum":true},{"pitch":36,"velocity":123,"startTime":7.499999999999995,"endTime":7.5499999999999945,"instrument":0,"program":-1,"isDrum":true},{"pitch":42,"velocity":51,"startTime":7.699999999999995,"endTime":7.749999999999995,"instrument":0,"program":-1,"isDrum":true},{"pitch":42,"velocity":80,"startTime":7.7999999999999945,"endTime":7.849999999999994,"instrument":0,"program":-1,"isDrum":true},{"pitch":38,"velocity":128,"startTime":7.7999999999999945,"endTime":7.849999999999994,"instrument":0,"program":-1,"isDrum":true},{"pitch":42,"velocity":73,"startTime":7.999999999999995,"endTime":8.049999999999995,"instrument":0,"program":-1,"isDrum":true},{"pitch":46,"velocity":123,"startTime":8.099999999999996,"endTime":8.149999999999997,"instrument":0,"program":-1,"isDrum":true},{"pitch":38,"velocity":55,"startTime":8.299999999999997,"endTime":8.349999999999998,"instrument":0,"program":-1,"isDrum":true},{"pitch":42,"velocity":78,"startTime":8.399999999999999,"endTime":8.45,"instrument":0,"program":-1,"isDrum":true},{"pitch":36,"velocity":98,"startTime":8.399999999999999,"endTime":8.45,"instrument":0,"program":-1,"isDrum":true},{"pitch":42,"velocity":67,"startTime":8.6,"endTime":8.65,"instrument":0,"program":-1,"isDrum":true},{"pitch":38,"velocity":90,"startTime":8.6,"endTime":8.65,"instrument":0,"program":-1,"isDrum":true},{"pitch":44,"velocity":128,"startTime":8.700000000000001,"endTime":8.750000000000002,"instrument":0,"program":-1,"isDrum":true},{"pitch":36,"velocity":112,"startTime":8.700000000000001,"endTime":8.750000000000002,"instrument":0,"program":-1,"isDrum":true},{"pitch":46,"velocity":62,"startTime":8.900000000000002,"endTime":8.950000000000003,"instrument":0,"program":-1,"isDrum":true},{"pitch":42,"velocity":61,"startTime":9.000000000000004,"endTime":9.050000000000004,"instrument":0,"program":-1,"isDrum":true},{"pitch":38,"velocity":128,"startTime":9.000000000000004,"endTime":9.050000000000004,"instrument":0,"program":-1,"isDrum":true},{"pitch":38,"velocity":52,"startTime":9.100000000000005,"endTime":9.150000000000006,"instrument":0,"program":-1,"isDrum":true},{"pitch":38,"velocity":87,"startTime":9.200000000000006,"endTime":9.250000000000007,"instrument":0,"program":-1,"isDrum":true},{"pitch":38,"velocity":101,"startTime":9.300000000000008,"endTime":9.350000000000009,"instrument":0,"program":-1,"isDrum":true},{"pitch":38,"velocity":119,"startTime":9.40000000000001,"endTime":9.45000000000001,"instrument":0,"program":-1,"isDrum":true},{"pitch":38,"velocity":128,"startTime":9.50000000000001,"endTime":9.550000000000011,"instrument":0,"program":-1,"isDrum":true},{"pitch":49,"velocity":94,"startTime":9.575000000000012,"endTime":9.625000000000012,"instrument":0,"program":-1,"isDrum":true},{"pitch":42,"velocity":84,"startTime":9.600000000000012,"endTime":9.650000000000013,"instrument":0,"program":-1,"isDrum":true},{"pitch":36,"velocity":128,"startTime":9.600000000000012,"endTime":9.650000000000013,"instrument":0,"program":-1,"isDrum":true},{"pitch":42,"velocity":66,"startTime":9.800000000000013,"endTime":9.850000000000014,"instrument":0,"program":-1,"isDrum":true},{"pitch":44,"velocity":123,"startTime":9.900000000000015,"endTime":9.950000000000015,"instrument":0,"program":-1,"isDrum":true},{"pitch":36,"velocity":123,"startTime":9.900000000000015,"endTime":9.950000000000015,"instrument":0,"program":-1,"isDrum":true},{"pitch":42,"velocity":64,"startTime":10.100000000000016,"endTime":10.150000000000016,"instrument":0,"program":-1,"isDrum":true},{"pitch":42,"velocity":73,"startTime":10.200000000000017,"endTime":10.250000000000018,"instrument":0,"program":-1,"isDrum":true},{"pitch":38,"velocity":128,"startTime":10.200000000000017,"endTime":10.250000000000018,"instrument":0,"program":-1,"isDrum":true},{"pitch":42,"velocity":78,"startTime":10.400000000000018,"endTime":10.450000000000019,"instrument":0,"program":-1,"isDrum":true},{"pitch":46,"velocity":128,"startTime":10.50000000000002,"endTime":10.55000000000002,"instrument":0,"program":-1,"isDrum":true},{"pitch":44,"velocity":84,"startTime":10.80000000000002,"endTime":10.850000000000021,"instrument":0,"program":-1,"isDrum":true},{"pitch":36,"velocity":104,"startTime":10.80000000000002,"endTime":10.850000000000021,"instrument":0,"program":-1,"isDrum":true},{"pitch":42,"velocity":61,"startTime":11.000000000000021,"endTime":11.050000000000022,"instrument":0,"program":-1,"isDrum":true},{"pitch":44,"velocity":123,"startTime":11.100000000000023,"endTime":11.150000000000023,"instrument":0,"program":-1,"isDrum":true},{"pitch":36,"velocity":123,"startTime":11.100000000000023,"endTime":11.150000000000023,"instrument":0,"program":-1,"isDrum":true},{"pitch":42,"velocity":55,"startTime":11.300000000000024,"endTime":11.350000000000025,"instrument":0,"program":-1,"isDrum":true},{"pitch":42,"velocity":74,"startTime":11.400000000000025,"endTime":11.450000000000026,"instrument":0,"program":-1,"isDrum":true},{"pitch":38,"velocity":128,"startTime":11.400000000000025,"endTime":11.450000000000026,"instrument":0,"program":-1,"isDrum":true},{"pitch":42,"velocity":71,"startTime":11.600000000000026,"endTime":11.650000000000027,"instrument":0,"program":-1,"isDrum":true},{"pitch":44,"velocity":123,"startTime":11.700000000000028,"endTime":11.750000000000028,"instrument":0,"program":-1,"isDrum":true},{"pitch":42,"velocity":42,"startTime":11.900000000000029,"endTime":11.95000000000003,"instrument":0,"program":-1,"isDrum":true},{"pitch":38,"velocity":35,"startTime":11.900000000000029,"endTime":11.95000000000003,"instrument":0,"program":-1,"isDrum":true}],"totalTime":38.449999999999896,"sourceInfo":{"encodingType":"MIDI","parser":"TONEJS_MIDI_CONVERT"}};